<?xml version="1.0" standalone="no"?>
<!DOCTYPE svg PUBLIC "-//W3C//DTD SVG 20010904//EN"
 "http://www.w3.org/TR/2001/REC-SVG-20010904/DTD/svg10.dtd">
<svg version="1.0" xmlns="http://www.w3.org/2000/svg"
 width="100.000000pt" height="65.000000pt" viewBox="0 0 100.000000 65.000000"
 preserveAspectRatio="xMidYMid meet">

<g transform="translate(0.000000,65.000000) scale(0.100000,-0.100000)"
fill="#EC5845" stroke="none" length="2em" width='2em'>
<path d="M437 573 c-15 -14 -6 -51 19 -74 23 -22 27 -23 52 -8 33 18 52 63 34
81 -10 10 -17 10 -34 -1 -16 -10 -23 -10 -26 -2 -4 12 -35 15 -45 4z"/>
<path d="M299 447 c-15 -12 -45 -50 -68 -83 -42 -65 -84 -97 -138 -109 -31 -6
-32 -8 -18 -29 8 -12 34 -34 58 -49 25 -16 49 -39 55 -53 7 -13 16 -24 22 -24
13 0 13 17 0 25 -15 9 -12 25 5 25 9 0 21 -11 27 -25 6 -14 15 -25 20 -25 11
0 10 7 -2 30 -9 17 -5 22 27 35 77 32 136 118 149 218 6 41 4 46 -24 65 -39
28 -80 28 -113 -1z m110 -22 c32 -31 -25 -173 -87 -220 -38 -28 -136 -32 -181
-8 -39 20 -52 43 -26 43 36 0 88 45 133 114 26 39 58 76 72 83 28 15 68 9 89
-12z"/>
<path d="M337 394 c-8 -8 1 -24 14 -24 5 0 9 7 9 15 0 15 -12 20 -23 9z"/>
<path d="M565 448 c-24 -19 -27 -26 -21 -65 13 -100 72 -186 149 -218 32 -13
36 -18 27 -35 -12 -23 -13 -30 -2 -30 5 0 14 11 20 25 6 14 18 25 27 25 17 0
20 -16 5 -25 -12 -7 -13 -25 -2 -25 5 0 15 11 22 24 7 14 33 37 57 53 24 15
50 37 58 49 14 21 13 23 -18 29 -54 12 -96 44 -139 108 -23 34 -53 72 -66 84
-32 29 -81 30 -117 1z m117 -25 c10 -9 31 -40 48 -69 31 -56 99 -114 132 -114
29 0 17 -22 -23 -42 -36 -19 -113 -24 -151 -9 -59 22 -118 116 -121 193 -2 35
2 44 23 55 28 15 67 9 92 -14z"/>
<path d="M615 391 c-7 -12 12 -24 25 -16 11 7 4 25 -10 25 -5 0 -11 -4 -15 -9z"/>
</g>
</svg>
