<?xml version="1.0" standalone="no"?>
<!DOCTYPE svg PUBLIC "-//W3C//DTD SVG 20010904//EN"
 "http://www.w3.org/TR/2001/REC-SVG-20010904/DTD/svg10.dtd">
<svg version="1.0" xmlns="http://www.w3.org/2000/svg"
 width="228.000000pt" height="81.000000pt" viewBox="0 0 228.000000 81.000000"
 preserveAspectRatio="xMidYMid meet">

<g transform="translate(0.000000,81.000000) scale(0.100000,-0.100000)"
fill="#000000" stroke="none">
<path d="M577 663 c-15 -14 -6 -51 19 -74 23 -22 27 -23 52 -8 33 18 52 63 34
81 -10 10 -17 10 -34 -1 -16 -10 -23 -10 -26 -2 -4 12 -35 15 -45 4z"/>
<path d="M439 537 c-15 -12 -45 -50 -68 -83 -42 -65 -84 -97 -138 -109 -31 -6
-32 -8 -18 -29 8 -12 34 -34 58 -49 25 -16 49 -39 55 -53 7 -13 16 -24 22 -24
13 0 13 17 0 25 -15 9 -12 25 5 25 9 0 21 -11 27 -25 6 -14 15 -25 20 -25 11
0 10 7 -2 30 -9 17 -5 22 27 35 77 32 136 118 149 218 6 41 4 46 -24 65 -39
28 -80 28 -113 -1z m110 -22 c32 -31 -25 -173 -87 -220 -38 -28 -136 -32 -181
-8 -39 20 -52 43 -26 43 36 0 88 45 133 114 26 39 58 76 72 83 28 15 68 9 89
-12z"/>
<path d="M477 484 c-8 -8 1 -24 14 -24 5 0 9 7 9 15 0 15 -12 20 -23 9z"/>
<path d="M705 538 c-24 -19 -27 -26 -21 -65 13 -100 72 -186 149 -218 32 -13
36 -18 27 -35 -12 -23 -13 -30 -2 -30 5 0 14 11 20 25 6 14 18 25 27 25 17 0
20 -16 5 -25 -12 -7 -13 -25 -2 -25 5 0 15 11 22 24 7 14 33 37 57 53 24 15
50 37 58 49 14 21 13 23 -18 29 -54 12 -96 44 -139 108 -23 34 -53 72 -66 84
-32 29 -81 30 -117 1z m117 -25 c10 -9 31 -40 48 -69 31 -56 99 -114 132 -114
29 0 17 -22 -23 -42 -36 -19 -113 -24 -151 -9 -59 22 -118 116 -121 193 -2 35
2 44 23 55 28 15 67 9 92 -14z"/>
<path d="M755 481 c-7 -12 12 -24 25 -16 11 7 4 25 -10 25 -5 0 -11 -4 -15 -9z"/>
<path d="M1895 532 c-6 -4 -10 -54 -10 -115 l0 -107 25 0 c26 0 26 1 22 65 -4
64 -4 65 22 65 31 0 42 -30 32 -90 -6 -38 -5 -40 19 -40 26 0 26 0 20 63 -9
91 -9 90 -55 83 l-40 -6 0 45 c0 44 -11 55 -35 37z"/>
<path d="M1215 420 c0 -91 3 -110 15 -110 12 0 15 14 12 72 l-2 73 31 -72 c18
-40 36 -73 40 -73 5 0 16 17 24 38 9 20 24 55 35 77 l20 40 -3 -77 c-2 -77 -2
-78 23 -78 l25 0 -3 111 c-3 96 -5 110 -20 107 -18 -3 -30 -23 -66 -107 l-23
-54 -28 69 c-34 82 -42 94 -64 94 -14 0 -16 -15 -16 -110z"/>
<path d="M1646 481 c-15 -17 -19 -34 -17 -78 4 -87 23 -107 78 -86 16 6 15 8
-7 13 -23 5 -25 11 -28 62 -3 55 -2 57 25 61 l28 4 -27 2 c-19 1 -28 7 -30 22
l-3 21 -19 -21z"/>
<path d="M1480 438 c0 -20 1 -20 20 -3 23 21 50 14 50 -14 0 -20 -18 -31 -50
-31 -11 0 -24 -9 -30 -20 -15 -28 4 -60 35 -60 31 0 41 16 14 23 -28 7 -21 41
9 45 19 3 22 -1 22 -32 0 -29 4 -36 20 -36 18 0 20 7 20 56 0 78 -11 94 -65
94 -39 0 -45 -3 -45 -22z"/>
<path d="M1760 440 c-26 -26 -27 -90 -2 -113 20 -19 77 -23 87 -7 3 6 -4 10
-17 10 -13 0 -29 5 -36 12 -14 14 -16 77 -2 98 8 13 13 13 40 -3 29 -18 30
-18 30 2 0 18 -6 21 -40 21 -27 0 -47 -7 -60 -20z"/>
</g>
</svg>
