<?xml version="1.0" standalone="no"?>
<!DOCTYPE svg PUBLIC "-//W3C//DTD SVG 20010904//EN"
 "http://www.w3.org/TR/2001/REC-SVG-20010904/DTD/svg10.dtd">
<svg version="1.0" xmlns="http://www.w3.org/2000/svg"
 width="92.000000pt" height="35.000000pt" viewBox="0 0 92.000000 35.000000"
 preserveAspectRatio="xMidYMid meet">

<g transform="translate(0.000000,35.000000) scale(0.100000,-0.100000)"
fill="white" stroke="none">
<path d="M735 282 c-6 -4 -10 -54 -10 -115 l0 -107 25 0 c26 0 26 1 22 65 -4
64 -4 65 22 65 31 0 42 -30 32 -90 -6 -38 -5 -40 19 -40 26 0 26 0 20 63 -9
91 -9 90 -55 83 l-40 -6 0 45 c0 44 -11 55 -35 37z"/>
<path d="M55 170 c0 -91 3 -110 15 -110 12 0 15 14 12 72 l-2 73 31 -72 c18
-40 36 -73 40 -73 5 0 16 17 24 38 9 20 24 55 35 77 l20 40 -3 -78 c-2 -76 -2
-77 23 -77 l25 0 -3 111 c-3 96 -5 110 -20 107 -18 -3 -30 -23 -66 -107 l-23
-54 -28 69 c-34 82 -42 94 -64 94 -14 0 -16 -15 -16 -110z"/>
<path d="M486 231 c-15 -17 -19 -34 -17 -78 4 -87 23 -107 78 -86 16 6 15 8
-7 13 -23 5 -25 11 -28 62 -3 55 -2 57 25 61 l28 4 -27 2 c-19 1 -28 7 -30 22
l-3 21 -19 -21z"/>
<path d="M320 188 c0 -20 1 -20 20 -3 23 21 50 14 50 -14 0 -20 -18 -31 -50
-31 -11 0 -24 -9 -30 -20 -15 -28 4 -60 35 -60 31 0 41 16 14 23 -28 7 -21 41
9 45 19 3 22 -1 22 -32 0 -29 4 -36 20 -36 18 0 20 7 20 56 0 78 -11 94 -65
94 -39 0 -45 -3 -45 -22z"/>
<path d="M600 190 c-26 -26 -27 -90 -2 -113 20 -19 77 -23 87 -7 3 6 -4 10
-17 10 -13 0 -29 5 -36 12 -14 14 -16 77 -2 98 8 13 13 13 40 -3 29 -18 30
-18 30 2 0 18 -6 21 -40 21 -27 0 -47 -7 -60 -20z"/>
</g>
</svg>
