<?xml version="1.0" standalone="no"?>
<!DOCTYPE svg PUBLIC "-//W3C//DTD SVG 20010904//EN"
 "http://www.w3.org/TR/2001/REC-SVG-20010904/DTD/svg10.dtd">
<svg version="1.0" xmlns="http://www.w3.org/2000/svg"
 width="92.000000pt" height="37.000000pt" viewBox="0 0 92.000000 37.000000"
 preserveAspectRatio="xMidYMid meet">

<g transform="translate(0.000000,37.000000) scale(0.100000,-0.100000)"
fill="#000000" stroke="white">
<path d="M0 185 l0 -185 460 0 460 0 0 185 0 185 -460 0 -460 0 0 -185z m770
79 c0 -33 4 -45 13 -41 65 24 79 12 87 -79 l5 -64 -30 0 -30 0 0 62 c0 59 -2
63 -24 66 -24 4 -24 3 -18 -62 l6 -66 -27 0 -27 0 2 108 c1 59 2 110 2 115 1
4 10 7 21 7 17 0 20 -7 20 -46z m-645 -31 c15 -38 31 -72 35 -76 4 -4 21 25
37 65 25 58 36 74 54 76 24 3 24 3 24 -108 l0 -110 -27 0 -27 0 5 73 4 72 -35
-72 c-36 -77 -50 -87 -64 -50 -5 12 -18 42 -30 67 l-21 45 3 -68 c2 -61 0 -67
-18 -67 -19 0 -20 7 -20 110 l0 110 26 0 c23 0 30 -9 54 -67z m415 -3 c11 0
20 -4 20 -10 0 -5 -11 -10 -25 -10 -22 0 -25 -4 -25 -32 0 -53 11 -78 32 -78
10 0 16 -4 13 -10 -3 -5 -21 -10 -40 -10 -39 0 -42 7 -47 91 -2 45 1 61 17 79
l19 21 8 -20 c4 -12 16 -21 28 -21z m-118 -13 c4 -6 8 -33 8 -59 0 -25 3 -53
6 -61 4 -13 -5 -15 -53 -15 -32 0 -64 5 -70 10 -32 26 4 78 54 78 25 0 31 21
10 39 -10 8 -19 7 -33 -4 -25 -19 -34 -19 -34 0 0 33 93 43 112 12z m262 17
c9 -3 16 -15 16 -25 0 -23 -8 -24 -32 -3 -24 23 -48 3 -48 -42 0 -39 22 -64
58 -65 l27 -1 -29 -12 c-16 -8 -37 -11 -47 -9 -71 19 -68 142 5 156 11 2 24 5
28 6 3 0 13 -2 22 -5z"/>
<path d="M345 140 c-8 -13 13 -40 31 -40 8 0 14 10 14 25 0 18 -5 25 -19 25
-11 0 -23 -5 -26 -10z"/>
</g>
</svg>
